<svg xmlns="http://www.w3.org/2000/svg" viewBox="0 0 48 48">
  <g transform="rotate(-45 24 24)">
    <path d="M12 21.5h28a3 3 0 0 1 3 3v6a3 3 0 0 1-3 3H12l-9-6z" fill="#c48600"/>
    <path d="M12 18h28a3 3 0 0 1 3 3v6a3 3 0 0 1-3 3H12z" fill="#ffb800"/>
    <rect x="12" y="24" width="24" height="6" fill="#f0a500"/>
    <rect x="34" y="18" width="4.5" height="12" fill="#afbbc1"/>
    <path d="M38.5 18H40a3 3 0 0 1 3 3v6a3 3 0 0 1-3 3h-1.5z" fill="#ff8fb1"/>
    <path d="M12 18v12L3 24z" fill="#ffd9a0"/>
    <path d="M6.2 21.9v4.2L3 24z" fill="#2b3a42"/>
    <rect x="15" y="20.2" width="12" height="2.6" rx="1.3" fill="#fff" opacity=".45"/>
  </g>
</svg>
